<svg width="100" height="100" viewBox="0 0 100 100" fill="none" xmlns="http://www.w3.org/2000/svg">
<path d="M50 8.33325C27 8.33325 8.33331 26.9999 8.33331 49.9999C8.33331 72.9999 27 91.6666 50 91.6666C73 91.6666 91.6667 72.9999 91.6667 49.9999C91.6667 26.9999 73 8.33325 50 8.33325ZM50 83.3333C31.625 83.3333 16.6666 68.3749 16.6666 49.9999C16.6666 31.6249 31.625 16.6666 50 16.6666C68.375 16.6666 83.3333 31.6249 83.3333 49.9999C83.3333 68.3749 68.375 83.3333 50 83.3333ZM64.75 36.7499L44.125 57.3749L35.2916 48.5416C33.6666 46.9166 31.0416 46.9166 29.4166 48.5416C27.7916 50.1666 27.7916 52.7916 29.4166 54.4166L41.2083 66.2083C42.8333 67.8333 45.4583 67.8333 47.0833 66.2083L70.6666 42.6249C72.2916 40.9999 72.2916 38.3749 70.6666 36.7499C69 35.1249 66.375 35.1249 64.75 36.7499Z" fill="white"/>
</svg>
